<?xml version="1.0" encoding="iso-8859-1"?>
<!-- Uploaded to: SVG Repo, www.svgrepo.com, Generator: SVG Repo Mixer Tools -->
<svg height="800px" width="800px" version="1.1" id="Layer_1" xmlns="http://www.w3.org/2000/svg"
	 viewBox="0 0 512 512" xml:space="preserve">
<path style="fill:#79695A;" d="M89.043,0C61.38,0,38.957,22.424,38.957,50.087v411.826c0,1.153,0.264,2.234,0.339,3.368
	c1.56,7.608,8.291,13.328,16.356,13.328c9.217,0,16.696-7.473,16.696-16.696c0-9.206,7.49-16.696,16.696-16.696h50.087v-33.391V0
	H89.043z"/>
    <path style="fill:#DBE1F1;" d="M456.348,445.217H139.13V0h283.826c27.662,0,50.087,22.424,50.087,50.087v378.435
	C473.043,437.742,465.568,445.217,456.348,445.217z"/>
    <path style="fill:#D0D5E5;" d="M422.957,0h-116.87v445.217h150.261c9.22,0,16.696-7.475,16.696-16.696V50.087
	C473.043,22.424,450.62,0,422.957,0z"/>
    <path style="fill:#7CCC92;" d="M389.565,111.304h-66.783c-5.677,0-11.242,0.445-16.696,1.224
	c-56.544,8.125-100.174,56.877-100.174,115.645v66.783c0,9.238,7.456,16.696,16.696,16.696h66.783
	c5.677,0,11.242-0.445,16.696-1.224c56.544-8.125,100.174-56.877,100.174-115.645V128
	C406.261,118.762,398.805,111.304,389.565,111.304z"/>
    <path style="fill:#34B772;" d="M406.261,128v66.783c0,58.769-43.63,107.52-100.174,115.645V112.529
	c5.454-0.779,11.019-1.224,16.696-1.224h66.783C398.805,111.304,406.261,118.762,406.261,128z"/>
    <path style="fill:#C2C2C9;" d="M456.348,478.609c-9.239,0-16.696-7.457-16.696-16.696s7.456-16.696,16.696-16.696
	c9.239,0,16.696-7.457,16.696-16.696s-7.456-16.696-16.696-16.696H89.043c-5.899,0-11.464,1.224-16.696,3.116
	c-19.367,6.901-33.391,25.266-33.391,46.97c0,26.379,21.704,50.087,50.087,50.087h367.304c9.239,0,16.696-7.457,16.696-16.696
	S465.587,478.609,456.348,478.609z"/>
    <path style="fill:#B6B6BF;" d="M473.043,495.304c0,9.238-7.456,16.696-16.696,16.696H306.087V411.826h150.261
	c9.239,0,16.696,7.457,16.696,16.696s-7.456,16.696-16.696,16.696c-9.239,0-16.696,7.457-16.696,16.696s7.456,16.696,16.696,16.696
	C465.587,478.609,473.043,486.066,473.043,495.304z"/>
    <path style="fill:#DDDD47;" d="M334.582,206.581l-139.13,139.13c-6.499,6.498-17.072,6.525-23.598,0
	c-6.567-6.456-6.567-17.141,0-23.597l139.13-139.13c6.568-6.567,17.03-6.567,23.598,0
	C341.148,189.44,341.148,200.125,334.582,206.581z"/>
    <path style="fill:#F9EDD8;" d="M409.155,445.217H89.043c-9.239,0-16.696,7.457-16.696,16.696s7.456,16.696,16.696,16.696h320.111
	c-1.891-5.231-2.894-10.797-2.894-16.696S407.264,450.449,409.155,445.217z"/>
    <path style="fill:#F4D7B2;" d="M456.348,478.609H306.087v-33.391h150.261c-9.239,0-16.696,7.457-16.696,16.696
	S447.108,478.609,456.348,478.609z"/>
    <path style="fill:#C7D100;" d="M334.582,206.581l-28.495,28.494v-47.193l4.896-4.897c6.568-6.567,17.03-6.567,23.598,0
	C341.148,189.44,341.148,200.125,334.582,206.581z"/>
</svg>